<?xml version="1.0" encoding="utf-8"?>
<!-- Generator: Adobe Illustrator 24.0.0, SVG Export Plug-In . SVG Version: 6.00 Build 0)  -->
<svg version="1.1" id="Layer_1" xmlns="http://www.w3.org/2000/svg" xmlns:xlink="http://www.w3.org/1999/xlink" x="0px" y="0px"
	 viewBox="0 0 50 50" style="enable-background:new 0 0 50 50;" xml:space="preserve">
<style type="text/css">
	.st0{fill:#FFFFFF;}
</style>
<path class="st0" d="M25.63,31.86c-3.36,0-6.09-2.53-6.09-5.64c0-3.11,2.73-5.64,6.09-5.64v-2.93c-5.11,0-9.25,3.84-9.25,8.58
	c0,4.73,4.14,8.57,9.25,8.57V31.86z"/>
<path class="st0" d="M25.63,17.64v2.93c3.35,0,6.09,2.53,6.09,5.64c0,3.11-2.73,5.64-6.09,5.64v2.93c5.11,0,9.25-3.84,9.25-8.57
	C34.88,21.48,30.74,17.64,25.63,17.64"/>
<path class="st0" d="M31.41,26.22c0-2.96-2.6-5.36-5.78-5.36v10.71C28.82,31.57,31.41,29.17,31.41,26.22"/>
<path class="st0" d="M25.63,20.86c-3.19,0-5.78,2.4-5.78,5.36c0,2.96,2.59,5.36,5.78,5.36V20.86z"/>
<path class="st0" d="M13.34,33.31c-0.04,0.8,0.39,1.48,0.92,1.48h0.02c0.54,0,0.96-0.68,0.92-1.48l-0.03-0.68l-1.74-1.61
	L13.34,33.31z"/>
<polygon class="st0" points="13.48,30.36 15.15,31.91 15.11,31.22 13.51,29.73 "/>
<polygon class="st0" points="13.45,31.02 15.18,32.63 15.15,31.91 13.48,30.36 "/>
<path class="st0" d="M13.83,22.33l-0.27,5.73l1.51,1.4l-0.34-7.13c0.01-0.06,0.03-0.13,0.06-0.18h-1.01
	C13.8,22.2,13.82,22.26,13.83,22.33"/>
<path class="st0" d="M15.53,14.97c-0.01-0.09-0.05-0.15-0.11-0.15h0c-0.06,0-0.11,0.07-0.11,0.16l-0.11,4.48h-0.31l-0.06-4.49
	c0-0.09-0.05-0.15-0.11-0.15h-0.07c-0.06,0-0.11,0.07-0.11,0.15l-0.06,4.49h-0.42L14,14.98c0-0.09-0.05-0.15-0.1-0.15h-0.07
	c-0.06,0-0.11,0.07-0.11,0.15l-0.06,4.49h-0.31l-0.11-4.48c0-0.09-0.05-0.16-0.1-0.16h0c-0.06,0-0.1,0.06-0.11,0.15l-0.16,4.49h2.81
	L15.53,14.97z"/>
<polygon class="st0" points="13.48,29.58 15.14,31.11 15.07,29.46 13.56,28.06 "/>
<path class="st0" d="M12.84,20.78h2.88c0.01-0.04,0.01-0.09,0.01-0.14l-0.04-1.18h-2.81l-0.04,1.18
	C12.83,20.69,12.83,20.74,12.84,20.78"/>
<path class="st0" d="M15.46,21.39c0.13-0.13,0.22-0.32,0.25-0.56h-2.87c0.04,0.23,0.13,0.43,0.26,0.56
	c0.18,0.18,0.54,0.45,0.68,0.76h1.01C14.91,21.84,15.27,21.56,15.46,21.39"/>
<path class="st0" d="M12.84,20.83h2.87c0-0.01,0-0.03,0-0.05h-2.88C12.84,20.8,12.84,20.82,12.84,20.83"/>
<path class="st0" d="M37.81,25.71l0-10.88c0-0.04-0.12-0.06-0.27,0.03v10.86H37.81z"/>
<path class="st0" d="M37.81,33.26v-7.55h-0.55v9.08h0.02C37.85,34.8,37.85,34.09,37.81,33.26"/>
<path class="st0" d="M36.82,25.71l-0.73,7.55c-0.04,0.83,0.62,1.54,1.17,1.54v-9.09H36.82z"/>
<path class="st0" d="M35.62,23.32c0,0.44,0.11,0.82,0.27,1.05c0.21,0.3,0.91,0.8,0.94,1.34h0.71l0.02-5.29l-1.83-2.41
	C35.64,20.78,35.62,23.32,35.62,23.32"/>
<path class="st0" d="M37.54,14.85c-0.46,0.17-1.37,0.62-1.57,1.67c-0.1,0.51-0.18,1.19-0.26,1.98l1.85,2.36L37.54,14.85z"/>
</svg>
